solid Default
  facet normal -1.000000e+00 0.000000e+00 0.000000e+00
    outer loop
      vertex -2.525000e+01 5.750000e+00 1.400000e+01
      vertex -2.525000e+01 5.750000e+00 -1.928820e-15
      vertex -2.525000e+01 -2.575000e+01 1.400000e+01
    endloop
  endfacet
  facet normal -1.000000e+00 0.000000e+00 0.000000e+00
    outer loop
      vertex -2.525000e+01 -2.575000e+01 1.400000e+01
      vertex -2.525000e+01 5.750000e+00 -1.928820e-15
      vertex -2.525000e+01 -2.575000e+01 1.928820e-15
    endloop
  endfacet
  facet normal 0.000000e+00 1.000000e+00 -1.224650e-16
    outer loop
      vertex -2.525000e+01 5.750000e+00 1.400000e+01
      vertex 2.525000e+01 5.750000e+00 1.400000e+01
      vertex -2.525000e+01 5.750000e+00 -1.928820e-15
    endloop
  endfacet
  facet normal 0.000000e+00 1.000000e+00 -1.224650e-16
    outer loop
      vertex -2.525000e+01 5.750000e+00 -1.928820e-15
      vertex 2.525000e+01 5.750000e+00 1.400000e+01
      vertex 2.525000e+01 5.750000e+00 -1.928820e-15
    endloop
  endfacet
  facet normal 0.000000e+00 1.224650e-16 1.000000e+00
    outer loop
      vertex 2.375000e+01 4.250000e+00 1.400000e+01
      vertex 2.525000e+01 -2.575000e+01 1.400000e+01
      vertex 2.525000e+01 5.750000e+00 1.400000e+01
    endloop
  endfacet
  facet normal 0.000000e+00 1.224650e-16 1.000000e+00
    outer loop
      vertex 2.375000e+01 -2.425000e+01 1.400000e+01
      vertex -2.375000e+01 -2.425000e+01 1.400000e+01
      vertex -2.525000e+01 -2.575000e+01 1.400000e+01
    endloop
  endfacet
  facet normal 0.000000e+00 1.224650e-16 1.000000e+00
    outer loop
      vertex -2.525000e+01 5.750000e+00 1.400000e+01
      vertex -2.375000e+01 4.250000e+00 1.400000e+01
      vertex 2.525000e+01 5.750000e+00 1.400000e+01
    endloop
  endfacet
  facet normal 0.000000e+00 1.224650e-16 1.000000e+00
    outer loop
      vertex -2.525000e+01 5.750000e+00 1.400000e+01
      vertex -2.525000e+01 -2.575000e+01 1.400000e+01
      vertex -2.375000e+01 4.250000e+00 1.400000e+01
    endloop
  endfacet
  facet normal 0.000000e+00 1.224650e-16 1.000000e+00
    outer loop
      vertex 2.375000e+01 -2.425000e+01 1.400000e+01
      vertex 2.525000e+01 -2.575000e+01 1.400000e+01
      vertex 2.375000e+01 4.250000e+00 1.400000e+01
    endloop
  endfacet
  facet normal 0.000000e+00 1.224650e-16 1.000000e+00
    outer loop
      vertex -2.525000e+01 -2.575000e+01 1.400000e+01
      vertex 2.525000e+01 -2.575000e+01 1.400000e+01
      vertex 2.375000e+01 -2.425000e+01 1.400000e+01
    endloop
  endfacet
  facet normal 0.000000e+00 1.224650e-16 1.000000e+00
    outer loop
      vertex -2.375000e+01 4.250000e+00 1.400000e+01
      vertex -2.525000e+01 -2.575000e+01 1.400000e+01
      vertex -2.375000e+01 -2.425000e+01 1.400000e+01
    endloop
  endfacet
  facet normal 0.000000e+00 1.224650e-16 1.000000e+00
    outer loop
      vertex -2.375000e+01 4.250000e+00 1.400000e+01
      vertex 2.375000e+01 4.250000e+00 1.400000e+01
      vertex 2.525000e+01 5.750000e+00 1.400000e+01
    endloop
  endfacet
  facet normal 0.000000e+00 -1.000000e+00 1.224650e-16
    outer loop
      vertex 2.525000e+01 -2.575000e+01 1.400000e+01
      vertex -2.525000e+01 -2.575000e+01 1.400000e+01
      vertex -2.525000e+01 -2.575000e+01 1.928820e-15
    endloop
  endfacet
  facet normal 0.000000e+00 -1.000000e+00 1.224650e-16
    outer loop
      vertex 2.525000e+01 -2.575000e+01 1.928820e-15
      vertex 2.525000e+01 -2.575000e+01 1.400000e+01
      vertex -2.525000e+01 -2.575000e+01 1.928820e-15
    endloop
  endfacet
  facet normal 0.000000e+00 -1.224650e-16 -1.000000e+00
    outer loop
      vertex -2.525000e+01 5.750000e+00 -1.928820e-15
      vertex 2.525000e+01 5.750000e+00 -1.928820e-15
      vertex -2.525000e+01 -2.575000e+01 1.928820e-15
    endloop
  endfacet
  facet normal 0.000000e+00 -1.224650e-16 -1.000000e+00
    outer loop
      vertex -2.525000e+01 -2.575000e+01 1.928820e-15
      vertex 2.525000e+01 5.750000e+00 -1.928820e-15
      vertex 2.525000e+01 -2.575000e+01 1.928820e-15
    endloop
  endfacet
  facet normal 1.000000e+00 0.000000e+00 0.000000e+00
    outer loop
      vertex 2.525000e+01 -7.500000e+00 8.000000e+00
      vertex 2.525000e+01 5.750000e+00 1.400000e+01
      vertex 2.525000e+01 -2.575000e+01 1.400000e+01
    endloop
  endfacet
  facet normal 1.000000e+00 0.000000e+00 0.000000e+00
    outer loop
      vertex 2.525000e+01 -1.250000e+01 4.000000e+00
      vertex 2.525000e+01 -1.250000e+01 8.000000e+00
      vertex 2.525000e+01 -2.575000e+01 1.400000e+01
    endloop
  endfacet
  facet normal 1.000000e+00 0.000000e+00 0.000000e+00
    outer loop
      vertex 2.525000e+01 -8.500000e+00 8.000000e+00
      vertex 2.525000e+01 -7.500000e+00 8.000000e+00
      vertex 2.525000e+01 -2.575000e+01 1.400000e+01
    endloop
  endfacet
  facet normal 1.000000e+00 0.000000e+00 0.000000e+00
    outer loop
      vertex 2.525000e+01 5.750000e+00 -1.928820e-15
      vertex 2.525000e+01 5.750000e+00 1.400000e+01
      vertex 2.525000e+01 -7.500000e+00 8.000000e+00
    endloop
  endfacet
  facet normal 1.000000e+00 0.000000e+00 0.000000e+00
    outer loop
      vertex 2.525000e+01 -2.575000e+01 1.928820e-15
      vertex 2.525000e+01 5.750000e+00 -1.928820e-15
      vertex 2.525000e+01 -7.500000e+00 4.000000e+00
    endloop
  endfacet
  facet normal 1.000000e+00 0.000000e+00 0.000000e+00
    outer loop
      vertex 2.525000e+01 -2.575000e+01 1.928820e-15
      vertex 2.525000e+01 -7.500000e+00 4.000000e+00
      vertex 2.525000e+01 -8.500000e+00 4.000000e+00
    endloop
  endfacet
  facet normal 1.000000e+00 0.000000e+00 0.000000e+00
    outer loop
      vertex 2.525000e+01 -9.500000e+00 8.000000e+00
      vertex 2.525000e+01 -8.500000e+00 8.000000e+00
      vertex 2.525000e+01 -2.575000e+01 1.400000e+01
    endloop
  endfacet
  facet normal 1.000000e+00 0.000000e+00 0.000000e+00
    outer loop
      vertex 2.525000e+01 -1.050000e+01 8.000000e+00
      vertex 2.525000e+01 -9.500000e+00 8.000000e+00
      vertex 2.525000e+01 -2.575000e+01 1.400000e+01
    endloop
  endfacet
  facet normal 1.000000e+00 0.000000e+00 0.000000e+00
    outer loop
      vertex 2.525000e+01 -8.500000e+00 4.000000e+00
      vertex 2.525000e+01 -8.500000e+00 8.000000e+00
      vertex 2.525000e+01 -9.500000e+00 8.000000e+00
    endloop
  endfacet
  facet normal 1.000000e+00 0.000000e+00 0.000000e+00
    outer loop
      vertex 2.525000e+01 -2.575000e+01 1.928820e-15
      vertex 2.525000e+01 -8.500000e+00 4.000000e+00
      vertex 2.525000e+01 -9.500000e+00 4.000000e+00
    endloop
  endfacet
  facet normal 1.000000e+00 0.000000e+00 0.000000e+00
    outer loop
      vertex 2.525000e+01 -2.575000e+01 1.928820e-15
      vertex 2.525000e+01 -9.500000e+00 4.000000e+00
      vertex 2.525000e+01 -1.050000e+01 4.000000e+00
    endloop
  endfacet
  facet normal 1.000000e+00 0.000000e+00 0.000000e+00
    outer loop
      vertex 2.525000e+01 -1.150000e+01 8.000000e+00
      vertex 2.525000e+01 -1.050000e+01 8.000000e+00
      vertex 2.525000e+01 -2.575000e+01 1.400000e+01
    endloop
  endfacet
  facet normal 1.000000e+00 0.000000e+00 0.000000e+00
    outer loop
      vertex 2.525000e+01 -1.050000e+01 4.000000e+00
      vertex 2.525000e+01 -1.050000e+01 8.000000e+00
      vertex 2.525000e+01 -1.150000e+01 8.000000e+00
    endloop
  endfacet
  facet normal 1.000000e+00 0.000000e+00 0.000000e+00
    outer loop
      vertex 2.525000e+01 -2.575000e+01 1.928820e-15
      vertex 2.525000e+01 -1.050000e+01 4.000000e+00
      vertex 2.525000e+01 -1.150000e+01 4.000000e+00
    endloop
  endfacet
  facet normal 1.000000e+00 0.000000e+00 0.000000e+00
    outer loop
      vertex 2.525000e+01 -2.575000e+01 1.928820e-15
      vertex 2.525000e+01 -1.250000e+01 4.000000e+00
      vertex 2.525000e+01 -2.575000e+01 1.400000e+01
    endloop
  endfacet
  facet normal 1.000000e+00 0.000000e+00 0.000000e+00
    outer loop
      vertex 2.525000e+01 -2.575000e+01 1.928820e-15
      vertex 2.525000e+01 -1.150000e+01 4.000000e+00
      vertex 2.525000e+01 -1.250000e+01 4.000000e+00
    endloop
  endfacet
  facet normal 1.000000e+00 0.000000e+00 0.000000e+00
    outer loop
      vertex 2.525000e+01 -9.500000e+00 8.000000e+00
      vertex 2.525000e+01 -9.500000e+00 4.000000e+00
      vertex 2.525000e+01 -8.500000e+00 4.000000e+00
    endloop
  endfacet
  facet normal 1.000000e+00 0.000000e+00 0.000000e+00
    outer loop
      vertex 2.525000e+01 -1.250000e+01 8.000000e+00
      vertex 2.525000e+01 -1.150000e+01 8.000000e+00
      vertex 2.525000e+01 -2.575000e+01 1.400000e+01
    endloop
  endfacet
  facet normal 1.000000e+00 0.000000e+00 0.000000e+00
    outer loop
      vertex 2.525000e+01 -1.150000e+01 8.000000e+00
      vertex 2.525000e+01 -1.150000e+01 4.000000e+00
      vertex 2.525000e+01 -1.050000e+01 4.000000e+00
    endloop
  endfacet
  facet normal 1.000000e+00 0.000000e+00 0.000000e+00
    outer loop
      vertex 2.525000e+01 -7.500000e+00 8.000000e+00
      vertex 2.525000e+01 -7.500000e+00 4.000000e+00
      vertex 2.525000e+01 5.750000e+00 -1.928820e-15
    endloop
  endfacet
  facet normal 1.000000e+00 0.000000e+00 0.000000e+00
    outer loop
      vertex -2.375000e+01 -2.425000e+01 1.400000e+01
      vertex -2.375000e+01 -2.425000e+01 1.500000e+00
      vertex -2.375000e+01 4.250000e+00 1.500000e+00
    endloop
  endfacet
  facet normal 1.000000e+00 0.000000e+00 0.000000e+00
    outer loop
      vertex -2.375000e+01 4.250000e+00 1.400000e+01
      vertex -2.375000e+01 -2.425000e+01 1.400000e+01
      vertex -2.375000e+01 4.250000e+00 1.500000e+00
    endloop
  endfacet
  facet normal 0.000000e+00 -1.000000e+00 1.224650e-16
    outer loop
      vertex -2.375000e+01 4.250000e+00 1.500000e+00
      vertex 2.375000e+01 4.250000e+00 1.500000e+00
      vertex 2.375000e+01 4.250000e+00 1.400000e+01
    endloop
  endfacet
  facet normal 0.000000e+00 -1.000000e+00 1.224650e-16
    outer loop
      vertex -2.375000e+01 4.250000e+00 1.400000e+01
      vertex -2.375000e+01 4.250000e+00 1.500000e+00
      vertex 2.375000e+01 4.250000e+00 1.400000e+01
    endloop
  endfacet
  facet normal 0.000000e+00 1.000000e+00 -1.224650e-16
    outer loop
      vertex 2.375000e+01 -2.425000e+01 1.500000e+00
      vertex -2.375000e+01 -2.425000e+01 1.500000e+00
      vertex 2.375000e+01 -2.425000e+01 1.400000e+01
    endloop
  endfacet
  facet normal 0.000000e+00 1.000000e+00 -1.224650e-16
    outer loop
      vertex 2.375000e+01 -2.425000e+01 1.400000e+01
      vertex -2.375000e+01 -2.425000e+01 1.500000e+00
      vertex -2.375000e+01 -2.425000e+01 1.400000e+01
    endloop
  endfacet
  facet normal -1.000000e+00 0.000000e+00 0.000000e+00
    outer loop
      vertex 2.375000e+01 -8.500000e+00 4.000000e+00
      vertex 2.375000e+01 -9.500000e+00 8.000000e+00
      vertex 2.375000e+01 -8.500000e+00 8.000000e+00
    endloop
  endfacet
  facet normal -1.000000e+00 0.000000e+00 0.000000e+00
    outer loop
      vertex 2.375000e+01 -7.500000e+00 8.000000e+00
      vertex 2.375000e+01 -2.425000e+01 1.400000e+01
      vertex 2.375000e+01 4.250000e+00 1.400000e+01
    endloop
  endfacet
  facet normal -1.000000e+00 0.000000e+00 0.000000e+00
    outer loop
      vertex 2.375000e+01 -8.500000e+00 8.000000e+00
      vertex 2.375000e+01 -2.425000e+01 1.400000e+01
      vertex 2.375000e+01 -7.500000e+00 8.000000e+00
    endloop
  endfacet
  facet normal -1.000000e+00 0.000000e+00 0.000000e+00
    outer loop
      vertex 2.375000e+01 4.250000e+00 1.500000e+00
      vertex 2.375000e+01 -7.500000e+00 8.000000e+00
      vertex 2.375000e+01 4.250000e+00 1.400000e+01
    endloop
  endfacet
  facet normal -1.000000e+00 0.000000e+00 0.000000e+00
    outer loop
      vertex 2.375000e+01 -9.500000e+00 8.000000e+00
      vertex 2.375000e+01 -2.425000e+01 1.400000e+01
      vertex 2.375000e+01 -8.500000e+00 8.000000e+00
    endloop
  endfacet
  facet normal -1.000000e+00 0.000000e+00 0.000000e+00
    outer loop
      vertex 2.375000e+01 -2.425000e+01 1.500000e+00
      vertex 2.375000e+01 -8.500000e+00 4.000000e+00
      vertex 2.375000e+01 4.250000e+00 1.500000e+00
    endloop
  endfacet
  facet normal -1.000000e+00 0.000000e+00 0.000000e+00
    outer loop
      vertex 2.375000e+01 -9.500000e+00 8.000000e+00
      vertex 2.375000e+01 -8.500000e+00 4.000000e+00
      vertex 2.375000e+01 -9.500000e+00 4.000000e+00
    endloop
  endfacet
  facet normal -1.000000e+00 0.000000e+00 0.000000e+00
    outer loop
      vertex 2.375000e+01 -8.500000e+00 4.000000e+00
      vertex 2.375000e+01 -7.500000e+00 4.000000e+00
      vertex 2.375000e+01 4.250000e+00 1.500000e+00
    endloop
  endfacet
  facet normal -1.000000e+00 0.000000e+00 0.000000e+00
    outer loop
      vertex 2.375000e+01 -1.050000e+01 8.000000e+00
      vertex 2.375000e+01 -2.425000e+01 1.400000e+01
      vertex 2.375000e+01 -9.500000e+00 8.000000e+00
    endloop
  endfacet
  facet normal -1.000000e+00 0.000000e+00 0.000000e+00
    outer loop
      vertex 2.375000e+01 -1.050000e+01 4.000000e+00
      vertex 2.375000e+01 -1.150000e+01 8.000000e+00
      vertex 2.375000e+01 -1.050000e+01 8.000000e+00
    endloop
  endfacet
  facet normal -1.000000e+00 0.000000e+00 0.000000e+00
    outer loop
      vertex 2.375000e+01 -1.250000e+01 4.000000e+00
      vertex 2.375000e+01 -2.425000e+01 1.400000e+01
      vertex 2.375000e+01 -1.250000e+01 8.000000e+00
    endloop
  endfacet
  facet normal -1.000000e+00 0.000000e+00 0.000000e+00
    outer loop
      vertex 2.375000e+01 -2.425000e+01 1.500000e+00
      vertex 2.375000e+01 -9.500000e+00 4.000000e+00
      vertex 2.375000e+01 -8.500000e+00 4.000000e+00
    endloop
  endfacet
  facet normal -1.000000e+00 0.000000e+00 0.000000e+00
    outer loop
      vertex 2.375000e+01 -1.150000e+01 8.000000e+00
      vertex 2.375000e+01 -1.050000e+01 4.000000e+00
      vertex 2.375000e+01 -1.150000e+01 4.000000e+00
    endloop
  endfacet
  facet normal -1.000000e+00 0.000000e+00 0.000000e+00
    outer loop
      vertex 2.375000e+01 -1.050000e+01 4.000000e+00
      vertex 2.375000e+01 -9.500000e+00 4.000000e+00
      vertex 2.375000e+01 -2.425000e+01 1.500000e+00
    endloop
  endfacet
  facet normal -1.000000e+00 0.000000e+00 0.000000e+00
    outer loop
      vertex 2.375000e+01 -1.250000e+01 8.000000e+00
      vertex 2.375000e+01 -2.425000e+01 1.400000e+01
      vertex 2.375000e+01 -1.150000e+01 8.000000e+00
    endloop
  endfacet
  facet normal -1.000000e+00 0.000000e+00 0.000000e+00
    outer loop
      vertex 2.375000e+01 -2.425000e+01 1.500000e+00
      vertex 2.375000e+01 -2.425000e+01 1.400000e+01
      vertex 2.375000e+01 -1.250000e+01 4.000000e+00
    endloop
  endfacet
  facet normal -1.000000e+00 0.000000e+00 0.000000e+00
    outer loop
      vertex 2.375000e+01 -2.425000e+01 1.500000e+00
      vertex 2.375000e+01 -1.150000e+01 4.000000e+00
      vertex 2.375000e+01 -1.050000e+01 4.000000e+00
    endloop
  endfacet
  facet normal -1.000000e+00 0.000000e+00 0.000000e+00
    outer loop
      vertex 2.375000e+01 -1.250000e+01 4.000000e+00
      vertex 2.375000e+01 -1.150000e+01 4.000000e+00
      vertex 2.375000e+01 -2.425000e+01 1.500000e+00
    endloop
  endfacet
  facet normal -1.000000e+00 0.000000e+00 0.000000e+00
    outer loop
      vertex 2.375000e+01 -7.500000e+00 8.000000e+00
      vertex 2.375000e+01 4.250000e+00 1.500000e+00
      vertex 2.375000e+01 -7.500000e+00 4.000000e+00
    endloop
  endfacet
  facet normal -1.000000e+00 0.000000e+00 0.000000e+00
    outer loop
      vertex 2.375000e+01 -1.150000e+01 8.000000e+00
      vertex 2.375000e+01 -2.425000e+01 1.400000e+01
      vertex 2.375000e+01 -1.050000e+01 8.000000e+00
    endloop
  endfacet
  facet normal 0.000000e+00 -1.224650e-16 -1.000000e+00
    outer loop
      vertex 2.525000e+01 -8.500000e+00 8.000000e+00
      vertex 2.375000e+01 -8.500000e+00 8.000000e+00
      vertex 2.525000e+01 -7.500000e+00 8.000000e+00
    endloop
  endfacet
  facet normal 0.000000e+00 -1.224650e-16 -1.000000e+00
    outer loop
      vertex 2.525000e+01 -7.500000e+00 8.000000e+00
      vertex 2.375000e+01 -8.500000e+00 8.000000e+00
      vertex 2.375000e+01 -7.500000e+00 8.000000e+00
    endloop
  endfacet
  facet normal 0.000000e+00 -1.000000e+00 1.224650e-16
    outer loop
      vertex 2.375000e+01 -7.500000e+00 4.000000e+00
      vertex 2.525000e+01 -7.500000e+00 4.000000e+00
      vertex 2.525000e+01 -7.500000e+00 8.000000e+00
    endloop
  endfacet
  facet normal 0.000000e+00 -1.000000e+00 1.224650e-16
    outer loop
      vertex 2.375000e+01 -7.500000e+00 8.000000e+00
      vertex 2.375000e+01 -7.500000e+00 4.000000e+00
      vertex 2.525000e+01 -7.500000e+00 8.000000e+00
    endloop
  endfacet
  facet normal 0.000000e+00 1.000000e+00 -1.224650e-16
    outer loop
      vertex 2.525000e+01 -8.500000e+00 4.000000e+00
      vertex 2.375000e+01 -8.500000e+00 4.000000e+00
      vertex 2.525000e+01 -8.500000e+00 8.000000e+00
    endloop
  endfacet
  facet normal 0.000000e+00 1.000000e+00 -1.224650e-16
    outer loop
      vertex 2.525000e+01 -8.500000e+00 8.000000e+00
      vertex 2.375000e+01 -8.500000e+00 4.000000e+00
      vertex 2.375000e+01 -8.500000e+00 8.000000e+00
    endloop
  endfacet
  facet normal 0.000000e+00 1.224650e-16 1.000000e+00
    outer loop
      vertex 2.375000e+01 -8.500000e+00 4.000000e+00
      vertex 2.525000e+01 -8.500000e+00 4.000000e+00
      vertex 2.525000e+01 -7.500000e+00 4.000000e+00
    endloop
  endfacet
  facet normal 0.000000e+00 1.224650e-16 1.000000e+00
    outer loop
      vertex 2.375000e+01 -7.500000e+00 4.000000e+00
      vertex 2.375000e+01 -8.500000e+00 4.000000e+00
      vertex 2.525000e+01 -7.500000e+00 4.000000e+00
    endloop
  endfacet
  facet normal 0.000000e+00 -1.224650e-16 -1.000000e+00
    outer loop
      vertex 2.525000e+01 -1.050000e+01 8.000000e+00
      vertex 2.375000e+01 -1.050000e+01 8.000000e+00
      vertex 2.525000e+01 -9.500000e+00 8.000000e+00
    endloop
  endfacet
  facet normal 0.000000e+00 -1.224650e-16 -1.000000e+00
    outer loop
      vertex 2.525000e+01 -9.500000e+00 8.000000e+00
      vertex 2.375000e+01 -1.050000e+01 8.000000e+00
      vertex 2.375000e+01 -9.500000e+00 8.000000e+00
    endloop
  endfacet
  facet normal 0.000000e+00 -1.000000e+00 1.224650e-16
    outer loop
      vertex 2.375000e+01 -9.500000e+00 4.000000e+00
      vertex 2.525000e+01 -9.500000e+00 4.000000e+00
      vertex 2.525000e+01 -9.500000e+00 8.000000e+00
    endloop
  endfacet
  facet normal 0.000000e+00 -1.000000e+00 1.224650e-16
    outer loop
      vertex 2.375000e+01 -9.500000e+00 8.000000e+00
      vertex 2.375000e+01 -9.500000e+00 4.000000e+00
      vertex 2.525000e+01 -9.500000e+00 8.000000e+00
    endloop
  endfacet
  facet normal 0.000000e+00 1.000000e+00 -1.224650e-16
    outer loop
      vertex 2.525000e+01 -1.050000e+01 4.000000e+00
      vertex 2.375000e+01 -1.050000e+01 4.000000e+00
      vertex 2.525000e+01 -1.050000e+01 8.000000e+00
    endloop
  endfacet
  facet normal 0.000000e+00 1.000000e+00 -1.224650e-16
    outer loop
      vertex 2.525000e+01 -1.050000e+01 8.000000e+00
      vertex 2.375000e+01 -1.050000e+01 4.000000e+00
      vertex 2.375000e+01 -1.050000e+01 8.000000e+00
    endloop
  endfacet
  facet normal 0.000000e+00 1.224650e-16 1.000000e+00
    outer loop
      vertex 2.375000e+01 -1.050000e+01 4.000000e+00
      vertex 2.525000e+01 -1.050000e+01 4.000000e+00
      vertex 2.525000e+01 -9.500000e+00 4.000000e+00
    endloop
  endfacet
  facet normal 0.000000e+00 1.224650e-16 1.000000e+00
    outer loop
      vertex 2.375000e+01 -9.500000e+00 4.000000e+00
      vertex 2.375000e+01 -1.050000e+01 4.000000e+00
      vertex 2.525000e+01 -9.500000e+00 4.000000e+00
    endloop
  endfacet
  facet normal 0.000000e+00 -1.224650e-16 -1.000000e+00
    outer loop
      vertex 2.525000e+01 -1.250000e+01 8.000000e+00
      vertex 2.375000e+01 -1.250000e+01 8.000000e+00
      vertex 2.525000e+01 -1.150000e+01 8.000000e+00
    endloop
  endfacet
  facet normal 0.000000e+00 -1.224650e-16 -1.000000e+00
    outer loop
      vertex 2.525000e+01 -1.150000e+01 8.000000e+00
      vertex 2.375000e+01 -1.250000e+01 8.000000e+00
      vertex 2.375000e+01 -1.150000e+01 8.000000e+00
    endloop
  endfacet
  facet normal 0.000000e+00 -1.000000e+00 1.224650e-16
    outer loop
      vertex 2.375000e+01 -1.150000e+01 4.000000e+00
      vertex 2.525000e+01 -1.150000e+01 4.000000e+00
      vertex 2.525000e+01 -1.150000e+01 8.000000e+00
    endloop
  endfacet
  facet normal 0.000000e+00 -1.000000e+00 1.224650e-16
    outer loop
      vertex 2.375000e+01 -1.150000e+01 8.000000e+00
      vertex 2.375000e+01 -1.150000e+01 4.000000e+00
      vertex 2.525000e+01 -1.150000e+01 8.000000e+00
    endloop
  endfacet
  facet normal 0.000000e+00 1.000000e+00 -1.224650e-16
    outer loop
      vertex 2.525000e+01 -1.250000e+01 4.000000e+00
      vertex 2.375000e+01 -1.250000e+01 4.000000e+00
      vertex 2.525000e+01 -1.250000e+01 8.000000e+00
    endloop
  endfacet
  facet normal 0.000000e+00 1.000000e+00 -1.224650e-16
    outer loop
      vertex 2.525000e+01 -1.250000e+01 8.000000e+00
      vertex 2.375000e+01 -1.250000e+01 4.000000e+00
      vertex 2.375000e+01 -1.250000e+01 8.000000e+00
    endloop
  endfacet
  facet normal 0.000000e+00 1.224650e-16 1.000000e+00
    outer loop
      vertex 2.375000e+01 -1.250000e+01 4.000000e+00
      vertex 2.525000e+01 -1.250000e+01 4.000000e+00
      vertex 2.525000e+01 -1.150000e+01 4.000000e+00
    endloop
  endfacet
  facet normal 0.000000e+00 1.224650e-16 1.000000e+00
    outer loop
      vertex 2.375000e+01 -1.150000e+01 4.000000e+00
      vertex 2.375000e+01 -1.250000e+01 4.000000e+00
      vertex 2.525000e+01 -1.150000e+01 4.000000e+00
    endloop
  endfacet
  facet normal 0.000000e+00 1.224650e-16 1.000000e+00
    outer loop
      vertex -2.375000e+01 -2.425000e+01 1.500000e+00
      vertex 2.375000e+01 -2.425000e+01 1.500000e+00
      vertex 2.375000e+01 4.250000e+00 1.500000e+00
    endloop
  endfacet
  facet normal 0.000000e+00 1.224650e-16 1.000000e+00
    outer loop
      vertex -2.375000e+01 4.250000e+00 1.500000e+00
      vertex -2.375000e+01 -2.425000e+01 1.500000e+00
      vertex 2.375000e+01 4.250000e+00 1.500000e+00
    endloop
  endfacet
endsolid Default
