G75*
%MOIN*%
%OFA0B0*%
%FSLAX24Y24*%
%IPPOS*%
%LPD*%
%AMOC8*
5,1,8,0,0,1.08239X$1,22.5*
%
%ADD10C,0.0000*%
%ADD11OC8,0.0520*%
%ADD12OC8,0.0630*%
%ADD13C,0.0630*%
%ADD14OC8,0.0700*%
%ADD15C,0.0600*%
%ADD16OC8,0.0760*%
%ADD17C,0.0160*%
%ADD18R,0.0356X0.0356*%
D10*
X000100Y000100D02*
X000100Y009596D01*
X010470Y009596D01*
X010470Y000100D01*
X000100Y000100D01*
D11*
X003350Y003850D03*
X004350Y003850D03*
X005100Y002850D03*
X005100Y001850D03*
X006350Y001850D03*
X006350Y002850D03*
X006100Y004100D03*
X007100Y004100D03*
X007850Y004100D03*
X008850Y004100D03*
X008850Y003100D03*
X007850Y003100D03*
X008850Y001850D03*
X009850Y001850D03*
X008850Y006850D03*
X008850Y007850D03*
X007850Y007850D03*
X006850Y007850D03*
X006850Y006850D03*
X007850Y006850D03*
X005850Y006850D03*
X004850Y006850D03*
X004850Y007850D03*
X005850Y007850D03*
X003600Y007850D03*
X002850Y007350D03*
X003600Y006850D03*
X003350Y005850D03*
X003350Y004850D03*
D12*
X002850Y002850D03*
X002850Y001850D03*
X006350Y005350D03*
X007850Y005350D03*
X008850Y005350D03*
D13*
X005350Y005350D03*
D14*
X004850Y008850D03*
X003850Y008850D03*
X002850Y008850D03*
X001850Y008850D03*
X000850Y008850D03*
X000850Y007850D03*
X000850Y006850D03*
X000850Y005850D03*
X000850Y004850D03*
X000850Y003850D03*
X000850Y002850D03*
X000850Y001850D03*
X000850Y000850D03*
X001850Y000850D03*
X002850Y000850D03*
X003850Y000850D03*
X004850Y000850D03*
X005850Y000850D03*
X006850Y000850D03*
X007850Y000850D03*
X008850Y000850D03*
X009850Y000850D03*
X009850Y008850D03*
X008850Y008850D03*
X007850Y008850D03*
X006850Y008850D03*
X005850Y008850D03*
D15*
X001850Y004850D03*
X001850Y003850D03*
X001850Y002850D03*
D16*
X001850Y005850D03*
X001850Y006850D03*
D17*
X002350Y007350D01*
X002850Y007350D01*
X003600Y006850D02*
X001850Y005850D01*
X001850Y004850D01*
X002350Y004350D01*
X004350Y004350D01*
X004350Y003850D01*
X005850Y003850D01*
X005880Y003852D01*
X005910Y003857D01*
X005939Y003866D01*
X005966Y003879D01*
X005992Y003894D01*
X006016Y003913D01*
X006037Y003934D01*
X006056Y003958D01*
X006071Y003984D01*
X006084Y004011D01*
X006093Y004040D01*
X006098Y004070D01*
X006100Y004100D01*
X006600Y004600D01*
X008100Y004600D01*
X008850Y005350D01*
X008850Y006100D01*
X009350Y006100D01*
X009350Y007350D01*
X008850Y007850D01*
X009850Y008850D01*
X007850Y008850D02*
X007850Y007850D01*
X006850Y007850D02*
X006850Y008850D01*
X005850Y008850D02*
X005850Y007850D01*
X004850Y007850D02*
X003600Y007850D01*
X003600Y006850D02*
X004850Y006850D01*
X004850Y007850D02*
X004850Y008850D01*
X007850Y006850D02*
X008850Y006850D01*
X008100Y004600D02*
X008600Y004100D01*
X008850Y004100D01*
X008850Y003100D02*
X008850Y001850D01*
X009850Y001850D02*
X009850Y000850D01*
X007850Y000850D02*
X007850Y003100D01*
X007350Y002350D02*
X004100Y002350D01*
X004098Y002306D01*
X004092Y002263D01*
X004083Y002221D01*
X004070Y002179D01*
X004053Y002139D01*
X004033Y002100D01*
X004010Y002063D01*
X003983Y002029D01*
X003954Y001996D01*
X003921Y001967D01*
X003887Y001940D01*
X003850Y001917D01*
X003811Y001897D01*
X003771Y001880D01*
X003729Y001867D01*
X003687Y001858D01*
X003644Y001852D01*
X003600Y001850D01*
X002850Y001850D01*
X000850Y001850D01*
X001850Y002850D02*
X002850Y002850D01*
X003350Y003850D02*
X001850Y003850D01*
X005100Y002850D02*
X006350Y002850D01*
X007100Y003600D01*
X007100Y004100D01*
X006350Y001850D02*
X006350Y001350D01*
X005850Y000850D01*
X005100Y001100D02*
X004850Y000850D01*
X005100Y001100D02*
X005100Y001850D01*
D18*
X007350Y002350D03*
M02*
