G75*
%MOIN*%
%OFA0B0*%
%FSLAX24Y24*%
%IPPOS*%
%LPD*%
%AMOC8*
5,1,8,0,0,1.08239X$1,22.5*
%
%ADD10C,0.0000*%
%ADD11OC8,0.0520*%
%ADD12OC8,0.0630*%
%ADD13C,0.0630*%
%ADD14OC8,0.0700*%
%ADD15C,0.0600*%
%ADD16OC8,0.0760*%
%ADD17C,0.0160*%
%ADD18R,0.0356X0.0356*%
D10*
X000100Y000100D02*
X000100Y009596D01*
X010470Y009596D01*
X010470Y000100D01*
X000100Y000100D01*
D11*
X003350Y003850D03*
X004350Y003850D03*
X005100Y002850D03*
X005100Y001850D03*
X006350Y001850D03*
X006350Y002850D03*
X006100Y004100D03*
X007100Y004100D03*
X007850Y004100D03*
X008850Y004100D03*
X008850Y003100D03*
X007850Y003100D03*
X008850Y001850D03*
X009850Y001850D03*
X008850Y006850D03*
X008850Y007850D03*
X007850Y007850D03*
X006850Y007850D03*
X006850Y006850D03*
X007850Y006850D03*
X005850Y006850D03*
X004850Y006850D03*
X004850Y007850D03*
X005850Y007850D03*
X003600Y007850D03*
X002850Y007350D03*
X003600Y006850D03*
X003350Y005850D03*
X003350Y004850D03*
D12*
X002850Y002850D03*
X002850Y001850D03*
X006350Y005350D03*
X007850Y005350D03*
X008850Y005350D03*
D13*
X005350Y005350D03*
D14*
X004850Y008850D03*
X003850Y008850D03*
X002850Y008850D03*
X001850Y008850D03*
X000850Y008850D03*
X000850Y007850D03*
X000850Y006850D03*
X000850Y005850D03*
X000850Y004850D03*
X000850Y003850D03*
X000850Y002850D03*
X000850Y001850D03*
X000850Y000850D03*
X001850Y000850D03*
X002850Y000850D03*
X003850Y000850D03*
X004850Y000850D03*
X005850Y000850D03*
X006850Y000850D03*
X007850Y000850D03*
X008850Y000850D03*
X009850Y000850D03*
X009850Y008850D03*
X008850Y008850D03*
X007850Y008850D03*
X006850Y008850D03*
X005850Y008850D03*
D15*
X001850Y004850D03*
X001850Y003850D03*
X001850Y002850D03*
D16*
X001850Y005850D03*
X001850Y006850D03*
D17*
X003350Y005850D02*
X004850Y005850D01*
X005350Y005350D01*
X006350Y005350D02*
X007850Y005350D01*
X007850Y006850D01*
X006850Y006850D01*
X005850Y006850D01*
X007850Y005350D02*
X007850Y004100D01*
X007350Y002350D02*
X008350Y002350D01*
X008850Y001850D01*
X003350Y003850D02*
X003350Y004850D01*
D18*
X007350Y002350D03*
M02*
